/* XPM */
static char *ball[] = {
/* columns rows colors chars-per-pixel */
"19 19 2 1 ",
"  c black",
". c #545472728E8E",
/* pixels */
"                   ",
"                   ",
"       .....       ",
"     .........     ",
"    ...........    ",
"   ....   ......   ",
"   ...     .....   ",
"  .....  ........  ",
"  ...............  ",
"  ...............  ",
"  ...............  ",
"  ...............  ",
"   .............   ",
"   .............   ",
"    ...........    ",
"     .........     ",
"       .....       ",
"                   ",
"                   "
};
