/* XPM */
static char *cat[] = {
/* columns rows colors chars-per-pixel */
"8 8 64 1 ",
"  c #545472728E8E",
". c #111111111111",
"X c #111111111111",
"o c #111111111111",
"O c #111111111111",
"+ c #111111111111",
"@ c #111111111111",
"# c #545472728E8E",
"$ c #545472728E8E",
"% c #545472728E8E",
"& c #111111111111",
"* c #111111111111",
"= c #111111111111",
"- c #111111111111",
"; c #545472728E8E",
": c #545472728E8E",
"> c #545472728E8E",
", c #111111111111",
"< c #545472728E8E",
"1 c #545472728E8E",
"2 c #545472728E8E",
"3 c #545472728E8E",
"4 c #111111111111",
"5 c #545472728E8E",
"6 c #545472728E8E",
"7 c #545472728E8E",
"8 c #545472728E8E",
"9 c #545472728E8E",
"0 c #545472728E8E",
"q c #545472728E8E",
"w c #545472728E8E",
"e c #545472728E8E",
"r c #545472728E8E",
"t c #111111111111",
"y c #111111111111",
"u c #545472728E8E",
"i c #545472728E8E",
"p c #111111111111",
"a c #111111111111",
"s c #545472728E8E",
"d c #545472728E8E",
"f c #545472728E8E",
"g c #545472728E8E",
"h c #545472728E8E",
"j c #545472728E8E",
"k c #545472728E8E",
"l c #545472728E8E",
"z c #545472728E8E",
"x c #111111111111",
"c c #545472728E8E",
"v c #545472728E8E",
"b c #545472728E8E",
"n c #545472728E8E",
"m c #545472728E8E",
"M c #545472728E8E",
"N c #111111111111",
"B c #545472728E8E",
"V c #111111111111",
"C c #545472728E8E",
"Z c #545472728E8E",
"A c #545472728E8E",
"S c #545472728E8E",
"D c #111111111111",
"F c #545472728E8E",
/* pixels */
" .XoO+@#",
"$%&*=-;:",
">,<12345",
"67890qwe",
"rtyuipas",
"dfghjklz",
"xcvbnmMN",
"BVCZASDF"
};
