/* XPM */
static char *has_win[] = {
/* columns rows colors chars-per-pixel */
"6 11 66 1 ",
"  c #545472728E8E",
". c #545472728E8E",
"X c #545472728E8E",
"o c #545472728E8E",
"O c #545472728E8E",
"+ c black",
"@ c #545472728E8E",
"# c #545472728E8E",
"$ c #545472728E8E",
"% c #545472728E8E",
"& c #545472728E8E",
"* c black",
"= c #545472728E8E",
"- c #545472728E8E",
"; c #545472728E8E",
": c #545472728E8E",
"> c #545472728E8E",
", c black",
"< c #545472728E8E",
"1 c #545472728E8E",
"2 c #545472728E8E",
"3 c #545472728E8E",
"4 c #545472728E8E",
"5 c black",
"6 c black",
"7 c black",
"8 c black",
"9 c black",
"0 c black",
"q c black",
"w c black",
"e c black",
"r c black",
"t c black",
"y c black",
"u c black",
"i c black",
"p c black",
"a c black",
"s c black",
"d c black",
"f c black",
"g c black",
"h c black",
"j c black",
"k c black",
"l c black",
"z c black",
"x c black",
"c c black",
"v c black",
"b c black",
"n c black",
"m c black",
"M c black",
"N c black",
"B c black",
"V c black",
"C c black",
"Z c black",
"A c black",
"S c black",
"D c black",
"F c black",
"G c black",
"H c black",
/* pixels */
" .XoO+",
"@#$%&*",
"=-;:>,",
"<12345",
"67890q",
"wertyu",
"ipasdf",
"ghjklz",
"xcvbnm",
"MNBVCZ",
"ASDFGH"
};
