/* XPM */
static char *ic_arrow_drop_up_blue_18px[] = {
/* columns rows colors chars-per-pixel */
"18 18 8 1 ",
"  c #111111",
". c #131414",
"X c #131415",
"o c #232B33",
"O c #354554",
"+ c #405569",
"@ c #42586C",
"# c #54728E",
/* pixels */
"                  ",
"                  ",
"                  ",
"                  ",
"                  ",
"                  ",
"        ..        ",
"       .+@X       ",
"      .+##@X      ",
"     .+####@X     ",
"     oOOOOOOo     ",
"                  ",
"                  ",
"                  ",
"                  ",
"                  ",
"                  ",
"                  "
};
