/* XPM */
static char *ic_arrow_drop_down_blue_36px[] = {
/* columns rows colors chars-per-pixel */
"36 36 7 1 ",
"  c #111111",
". c #191C20",
"X c #1A1D21",
"o c #1A1E22",
"O c #4B657D",
"+ c #4C677F",
"@ c #54728E",
/* pixels */
"                                    ",
"                                    ",
"                                    ",
"                                    ",
"                                    ",
"                                    ",
"                                    ",
"                                    ",
"                                    ",
"                                    ",
"                                    ",
"                                    ",
"                                    ",
"                                    ",
"                                    ",
"          .O@@@@@@@@@@@@+o          ",
"           .O@@@@@@@@@@+o           ",
"            .O@@@@@@@@+o            ",
"             .O@@@@@@+o             ",
"              .O@@@@+o              ",
"               .O@@+o               ",
"                .O+o                ",
"                 XX                 ",
"                                    ",
"                                    ",
"                                    ",
"                                    ",
"                                    ",
"                                    ",
"                                    ",
"                                    ",
"                                    ",
"                                    ",
"                                    ",
"                                    ",
"                                    "
};
