/* XPM */
static char *ic_battery_charging_full_blue_18px[] = {
/* columns rows colors chars-per-pixel */
"18 18 35 1 ",
"  c #111111",
". c #131314",
"X c #131415",
"o c #16181B",
"O c #181B1D",
"+ c #1C2126",
"@ c #1C2226",
"# c #1D2227",
"$ c #21282E",
"% c #222A31",
"& c #252E36",
"* c #28333D",
"= c #2A353F",
"- c #2C3844",
"; c #2D3A46",
": c #303E4B",
"> c #32404D",
", c #32414F",
"< c #334352",
"1 c #344352",
"2 c #344453",
"3 c #354554",
"4 c #364655",
"5 c #42576B",
"6 c #43596D",
"7 c #43596E",
"8 c #4A647C",
"9 c #4A647D",
"0 c #4E6983",
"q c #506C87",
"w c #506D87",
"e c #516D88",
"r c #526F8B",
"t c #54728D",
"y c #54728E",
/* pixels */
"                  ",
"       $::$       ",
"       ,yy,       ",
"     2tyyyyt1     ",
"     7yyyyyy7     ",
"     7yyy8yy7     ",
"     7yyr=yy7     ",
"     7yy4%yy7     ",
"     7yqo%yy7     ",
"     7y> O-e7     ",
"     7w#X *y7     ",
"     7yy%.9y7     ",
"     7yy%;yy7     ",
"     7yy&0yy7     ",
"     7yy6yyy7     ",
"     5yyyyyy5     ",
"     @<3333<+     ",
"                  "
};
