/* XPM */
static char *ic_grid_on_blue_18px[] = {
/* columns rows colors chars-per-pixel */
"18 18 11 1 ",
"  c #111111",
". c #111112",
"X c gray7",
"o c #29333D",
"O c #29343E",
"+ c #303E4B",
"@ c #32414F",
"# c #354554",
"$ c #43596D",
"% c #455C71",
"& c #54728E",
/* pixels */
"                  ",
" XO++++++++++++O. ",
" O&&&&&&&&&&&&&&O ",
" @&   &@  @&   &@ ",
" @&   &@  @&   &@ ",
" @&   &@  @&   &@ ",
" @&&&&&&&&&&&&&&@ ",
" @&###&%##%&###&@ ",
" @&   &@  @&   &@ ",
" @&   &@  @&   &@ ",
" @&+++&$++$&+++&@ ",
" @&&&&&&&&&&&&&&@ ",
" @&   &@  @&   &@ ",
" @&   &@  @&   &@ ",
" @&   &@  @&   &@ ",
" O&&&&&&&&&&&&&&o ",
" .O############o. ",
"                  "
};
