/* XPM */
static char *ic_memory_blue_18px[] = {
/* columns rows colors chars-per-pixel */
"18 18 14 1 ",
"  c #111111",
". c #161819",
"X c #16181A",
"o c #1D2328",
"O c #1F252A",
"+ c #212930",
"@ c #222A31",
"# c #222A32",
"$ c #2F3C49",
"% c #43596D",
"& c #43596E",
"* c #4E6983",
"= c #4E6A83",
"- c #54728E",
/* pixels */
"                  ",
"                  ",
"      o%oo%o      ",
"    X@$-$$-$@X    ",
"   X*--------=.   ",
"   +-$######$-+   ",
"  O$-@.####.@-$O  ",
"  &--@@----@@--&  ",
"  O$-@@-$$-@@-$O  ",
"  O$-@@-$$-@@-$O  ",
"  &--@@----@@--&  ",
"  O$-@.####.@-$O  ",
"   +-$######$-+   ",
"   X=--------*.   ",
"    .@$-$$-$@.    ",
"      o%oo%o      ",
"                  ",
"                  "
};
