/* XPM */
static char *ic_network_check_blue_18px[] = {
/* columns rows colors chars-per-pixel */
"18 18 68 1 ",
"  c #111111",
". c #131314",
"X c #131414",
"o c #131416",
"O c #141516",
"+ c #151618",
"@ c #151718",
"# c #161819",
"$ c #16181A",
"% c #17191C",
"& c #171A1D",
"* c #191C20",
"= c #1A1E22",
"- c #1B1F23",
"; c #1B2024",
": c #1C2125",
"> c #1E242A",
", c #1F262C",
"< c #21282F",
"1 c #222930",
"2 c #232B32",
"3 c #232B33",
"4 c #242D35",
"5 c #262F38",
"6 c #28333D",
"7 c #29343E",
"8 c #2B3640",
"9 c #2E3A46",
"0 c #303D4A",
"q c #313F4C",
"w c #32414F",
"e c #324250",
"r c #334250",
"t c #334352",
"y c #344453",
"u c #354554",
"i c #364757",
"p c #3A4C5D",
"a c #3A4D5E",
"s c #3B4E5F",
"d c #3B4E60",
"f c #3C4F61",
"g c #3D5062",
"h c #3D5163",
"j c #3D5164",
"k c #3E5265",
"l c #405568",
"z c #41566A",
"x c #435A6F",
"c c #476076",
"v c #486077",
"b c #496178",
"n c #496279",
"m c #4A637B",
"M c #4A647C",
"N c #4A647D",
"B c #4E6982",
"V c #4E6A83",
"C c #4E6A84",
"Z c #4F6B84",
"A c #4F6B85",
"S c #506C86",
"D c #516E89",
"F c #526F8A",
"G c #53718C",
"H c #53718D",
"J c #54728D",
"K c #54728E",
/* pixels */
"                  ",
"                  ",
"                  ",
"     *8ihgr$o     ",
"   3xJKKKKpf2l,   ",
" $kKKJnauu1F2KKfo ",
"@mKGs:    yM%dHKc+",
" wZ2  .<7&Aj  1Vw ",
"  $ OeSKb9Kq8O $  ",
"   @vKKD6mK4Db@   ",
"    wV6X5KK;Cw    ",
"     #  xKB $     ",
"       >KKz       ",
"       0KKt       ",
"       -NM=       ",
"                  ",
"                  ",
"                  "
};
