/* XPM */
static char *ic_network_cell_blue_18px[] = {
/* columns rows colors chars-per-pixel */
"18 18 13 1 ",
"  c #111111",
". c #131415",
"X c #17191B",
"o c #1B1F23",
"O c #1B2024",
"+ c #1D2227",
"@ c #252E36",
"# c #2B3641",
"$ c #32414F",
"% c #374858",
"& c #3A4C5D",
"* c #486178",
"= c #54728E",
/* pixels */
"                  ",
"                . ",
"               oo ",
"              o@o ",
"             o@@o ",
"            #@@@o ",
"           %*@@@o ",
"          %=*@@@o ",
"         %==*@@@o ",
"        %===*@@@o ",
"       %====*@@@o ",
"      %=====*@@@o ",
"     %======*@@@o ",
"    %=======*@@@o ",
"   %========*@@@o ",
"  %=========*@@@o ",
" +&&&&&&&&&&$OOOX ",
"                  "
};
