/* XPM */
static char *ic_power_blue_18px[] = {
/* columns rows colors chars-per-pixel */
"18 18 20 1 ",
"  c #111111",
". c #111112",
"X c #131416",
"o c #151718",
"O c #151719",
"+ c #16181A",
"@ c #16181B",
"# c #2A353F",
"$ c #2E3B47",
"% c #32414F",
"& c #394B5C",
"* c #3C4F61",
"= c #43596D",
"- c #465E74",
"; c #475E74",
": c #476076",
"> c #4B657D",
", c #4B667E",
"< c #4F6B85",
"1 c #54728E",
/* pixels */
"                  ",
"                  ",
"      =#  #=      ",
"      1%  %1      ",
"      1%  %1.     ",
"    X&1>==>1&X    ",
"    $11111111$    ",
"    %11111111%    ",
"    %11111111%    ",
"    %11111111%    ",
"    %11111111%    ",
"    o-111111:@    ",
"     O;1111:@     ",
"      +<11<+      ",
"       ,11,       ",
"       *==*       ",
"                  ",
"                  "
};
