/* XPM */
static char *ic_router_blue_18px[] = {
/* columns rows colors chars-per-pixel */
"18 18 36 1 ",
"  c #111111",
". c gray7",
"X c #191C20",
"o c #1A1D21",
"O c #1B2024",
"+ c #1C2025",
"@ c #1E2429",
"# c #1E242A",
"$ c #1F252A",
"% c #222A32",
"& c #28333D",
"* c #29333D",
"= c #2A353F",
"- c #2B3640",
"; c #2E3C48",
": c #2F3C48",
"> c #303E4B",
", c #31404D",
"< c #32404D",
"1 c #32414F",
"2 c #324250",
"3 c #334250",
"4 c #354554",
"5 c #3A4C5D",
"6 c #3A4D5E",
"7 c #3E5265",
"8 c #3E5366",
"9 c #3F5366",
"0 c #405569",
"q c #43596D",
"w c #43596E",
"e c #486077",
"r c #4A637B",
"t c #4B657D",
"y c #4C667F",
"u c #54728E",
/* pixels */
"                  ",
"                  ",
"         X3002X   ",
"        *r:##;r&  ",
"        Oo6yy5oO  ",
"         o=..=o   ",
"           $$     ",
"           ww     ",
"           ww     ",
"   @%%%%%%%ee%@   ",
"  <uuuuuuuuuuuu,  ",
"  wuuuuuuuuuuuuw  ",
"  wu1 uo-w wuuuw  ",
"  wuq>u47t>tuuuw  ",
"  9uuuuuuuuuuuu8  ",
"  +8qqqqqqqqqq8O  ",
"                  ",
"                  "
};
