/* XPM */
static char *ic_sd_storage_blue_18px[] = {
/* columns rows colors chars-per-pixel */
"18 18 17 1 ",
"  c #111111",
". c #1B1F22",
"X c #1B1F23",
"o c #29343E",
"O c #2F3D4A",
"+ c #303E4B",
"@ c #32404E",
"# c #32414F",
"$ c #334250",
"% c #354554",
"& c #43596E",
"* c #4A637B",
"= c #4A647C",
"- c #53718C",
"; c #53718D",
": c #54728D",
"> c #54728E",
/* pixels */
"                  ",
"       o+++++OX   ",
"      $>>>>>>>*   ",
"     +># & & #>   ",
"    +>># & & #>   ",
"   +>>># & & #>   ",
"   ->>>>>>>>>>>   ",
"   ->>>>>>>>>>>   ",
"   ;>>>>>>>>>>>   ",
"   ;>>>>>>>>>>>   ",
"   :>>>>>>>>>>>   ",
"   :>>>>>>>>>>>   ",
"   >>>>>>>>>>>>   ",
"   >>>>>>>>>>>>   ",
"   >>>>>>>>>>>>   ",
"   =>>>>>>>>>>*   ",
"   .#%%%%%%%%@.   ",
"                  "
};
