/* XPM */
static char *ic_schedule_blue_18px[] = {
/* columns rows colors chars-per-pixel */
"18 18 55 1 ",
"  c #111111",
". c #121313",
"X c #131415",
"o c #141516",
"O c #141517",
"+ c #151618",
"@ c #151718",
"# c #151719",
"$ c #161819",
"% c #17191B",
"& c #17191C",
"* c #171A1C",
"= c #1A1E22",
"- c #1C2125",
"; c #1C2126",
": c #1C2226",
"> c #1D2328",
", c #1E2329",
"< c #1F252B",
"1 c #1F262C",
"2 c #20262D",
"3 c #232B33",
"4 c #263039",
"5 c #273039",
"6 c #27313A",
"7 c #2B3640",
"8 c #2E3C48",
"9 c #2F3C48",
"0 c #2F3C49",
"q c #2F3D4A",
"w c #32414F",
"e c #344352",
"r c #364756",
"t c #364757",
"y c #374858",
"u c #374959",
"i c #384A5B",
"p c #394B5B",
"a c #394B5C",
"s c #3A4C5D",
"d c #405568",
"f c #405569",
"g c #43596E",
"h c #455C71",
"j c #4B667E",
"k c #4C667F",
"l c #4C677F",
"z c #4C6780",
"x c #4D6780",
"c c #4D6881",
"v c #516D88",
"b c #526F8A",
"n c #526F8B",
"m c #52708B",
"M c #54728E",
/* pixels */
"                  ",
"      $6984#      ",
"    *smMMMMma&    ",
"   :znt<oo1ybk;   ",
"  *lx>      >xk&  ",
"  sn>   r3   >bp  ",
" $mt    g7    yn@ ",
" 6M<    g7    1M6 ",
" qMO    g7    OM0 ",
" 0MO    dh-   +M8 ",
" 4M<    Xwvy+ 1M5 ",
" #my      =fe un@ ",
"  ab>       .,ni  ",
"  &lx>      ,cj%  ",
"   ;lby1OO2unj-   ",
"    &anMMMMni%    ",
"      #6885@      ",
"                  "
};
