/* XPM */
static char *ic_volume_down_blue_18px[] = {
/* columns rows colors chars-per-pixel */
"18 18 19 1 ",
"  c #111111",
". c #131314",
"X c #161819",
"o c #191C20",
"O c #1A1D21",
"+ c #222A31",
"@ c #222A32",
"# c #252E36",
"$ c #2A353F",
"% c #2B3640",
"& c #31404D",
"* c #32404D",
"= c #32414F",
"- c #3D5164",
"; c #3E5265",
": c #465E75",
"> c #4B657D",
", c #4B667E",
"< c #54728E",
/* pixels */
"                  ",
"                  ",
"                  ",
"         o$       ",
"        o>=       ",
"       o><=       ",
"   X@@#,<<= ;.    ",
"   +<<<<<<= <*    ",
"   +<<<<<<= <:    ",
"   +<<<<<<= <:    ",
"   +<<<<<<= <&    ",
"   X@@#,<<= -.    ",
"       o><=       ",
"        o>=       ",
"         O%       ",
"                  ",
"                  ",
"                  "
};
