/* XPM */
static char *ic_view_comfy_blue_18px[] = {
/* columns rows colors chars-per-pixel */
"18 18 10 1 ",
"  c #111111",
". c #151719",
"X c #1A1D21",
"o c #1E2329",
"O c #222A31",
"+ c #2B3640",
"@ c #32414F",
"# c #364757",
"$ c #435A6F",
"% c #54728E",
/* pixels */
"                  ",
"                  ",
"                  ",
"  oOO.OOO.OOoXOOX ",
"  $%%O%%%O%%$@%%@ ",
"  $%%O%%%O%%$@%%@ ",
"  #$$o$$$o$$#+$$+ ",
"  +@@X@@@X@@+O@@O ",
"  $%%O%%%O%%$@%%@ ",
"  $%%O%%%O%%$@%%@ ",
"  +@@X@@@X@@+O@@O ",
"  #$$o$$$o$$#+$$+ ",
"  $%%O%%%O%%$@%%@ ",
"  $%%O%%%O%%$@%%@ ",
"  oOO.OOO.OOoXOOX ",
"                  ",
"                  ",
"                  "
};
