/* XPM */
static char *ic_wifi_tethering_blue_18px[] = {
/* columns rows colors chars-per-pixel */
"18 18 89 1 ",
"  c #111111",
". c #111112",
"X c gray7",
"o c #121213",
"O c #121313",
"+ c #131314",
"@ c #131414",
"# c #131415",
"$ c #141617",
"% c #151618",
"& c #151718",
"* c #151719",
"= c #161819",
"- c #16181A",
"; c #16181B",
": c #181B1D",
"> c #181B1E",
", c #191C1F",
"< c #191C20",
"1 c #191D20",
"2 c #1A1D21",
"3 c #1A1E21",
"4 c #1B1F22",
"5 c #1B1F24",
"6 c #1B2024",
"7 c #1C2126",
"8 c #1C2226",
"9 c #1D2227",
"0 c #1D2328",
"q c #1F262C",
"w c #20262D",
"e c #21282E",
"r c #21282F",
"t c #222930",
"y c #222A31",
"u c #252E36",
"i c #252E37",
"p c #262F37",
"a c #263039",
"s c #273039",
"d c #27313A",
"f c #27313B",
"g c #2A353F",
"h c #2A3540",
"j c #2B3640",
"k c #2B3742",
"l c #2C3843",
"z c #2E3B47",
"x c #2E3C48",
"c c #2F3C48",
"v c #2F3C49",
"b c #2F3D4A",
"n c #303E4B",
"m c #324250",
"M c #374959",
"N c #3A4D5E",
"B c #3B4D5E",
"V c #3A4D5F",
"C c #3E5264",
"Z c #3E5265",
"A c #405568",
"S c #405569",
"D c #41566A",
"F c #41576B",
"G c #42576B",
"H c #42586C",
"J c #43596D",
"K c #43596E",
"L c #435A6F",
"P c #465E74",
"I c #49627A",
"U c #49637A",
"Y c #4A637B",
"T c #4A647B",
"R c #4A647C",
"E c #4D6780",
"W c #4D6881",
"Q c #4D6882",
"! c #4E6982",
"~ c #4E6983",
"^ c #4E6A83",
"/ c #506C87",
"( c #506D87",
") c #526F8A",
"_ c #526F8B",
"` c #52708B",
"' c #53708C",
"] c #54728D",
"[ c #54728E",
/* pixels */
"                  ",
"                  ",
"     ouMSSMuo     ",
"    rU[/PP([Ie    ",
"   f_Ta+  +sR_d   ",
"  0_K$=nSAn*%L)9  ",
"  J^-8Q]RR]W7;~H  ",
" 2[b+Y!q  w!T+n]< ",
" h[5i[d%NN$d[u6[g ",
" n[@n[&z[[z*[n#[n ",
" l[:l[3t'`r4[k>[k ",
" y[u<'B 11 V',p[y ",
" +WD m[i  i[m FEO ",
"  v[j.go  og.k[c  ",
"  XG`c      x`DX  ",
"   $ZZ      ZC$   ",
"     $      $     ",
"                  "
};
