/* XPM */
static char *ic_wifi_blue_18px[] = {
/* columns rows colors chars-per-pixel */
"18 18 44 1 ",
"  c #111111",
". c #121213",
"X c #131414",
"o c #141516",
"O c #141517",
"+ c #141617",
"@ c #151718",
"# c #161819",
"$ c #16181A",
"% c #17191C",
"& c #171A1C",
"* c #1B1F22",
"= c #1B1F23",
"- c #20272E",
"; c #21282E",
": c #212930",
"> c #222930",
", c #222A31",
"< c #28323C",
"1 c #28333D",
"2 c #2A353F",
"3 c #2A3540",
"4 c #303E4B",
"5 c #32414F",
"6 c #334250",
"7 c #334351",
"8 c #334352",
"9 c #394B5B",
"0 c #394B5C",
"q c #3A4D5F",
"w c #3B4E5F",
"e c #3D5163",
"r c #3E5264",
"t c #42586D",
"y c #43596E",
"u c #486077",
"i c #486178",
"p c #4E6A83",
"a c #4E6A84",
"s c #4F6B84",
"d c #506C87",
"f c #53718C",
"g c #53718D",
"h c #54728E",
/* pixels */
"                  ",
"                  ",
"                  ",
"     &38qq82&     ",
"   ;yghhhhhhgt-   ",
" Orhhhu9660ihhheO ",
"@uhfq*      =wfhu@",
" 5p:  X,33>X  >a5 ",
"  # O7dhhhhd6o $  ",
"   @uhhayyshhu@   ",
"    5p<.  .1a5    ",
"     #  %%  $     ",
"      +thht+      ",
"       4hh6       ",
"        55        ",
"                  ",
"                  ",
"                  "
};
